<?xml version="1.0" encoding="utf-8"?>
<!-- Generator: Adobe Illustrator 21.1.0, SVG Export Plug-In . SVG Version: 6.00 Build 0)  -->
<svg version="1.1" id="Слой_1" xmlns="http://www.w3.org/2000/svg" xmlns:xlink="http://www.w3.org/1999/xlink" x="0px" y="0px"
	 viewBox="0 0 450.9 198.9" style="enable-background:new 0 0 450.9 198.9;" xml:space="preserve">
<style type="text/css">
	.st0{fill:#6E6259;}
	.st1{fill:#C00D1E;}
</style>
<g>
	<path class="st0" d="M101.5,123.8c2,0,3.6-0.6,4.8-1.7c1.2-1.1,1.8-2.6,1.8-4.4c0-1.8-0.6-3.3-1.8-4.4c-1.2-1.1-2.8-1.7-4.8-1.7
		H88.1v12.2H101.5z M99.5,87.4H88.1v11.3h11.4c1.8,0,3.3-0.5,4.4-1.6c1.1-1.1,1.7-2.4,1.7-4.1c0-1.6-0.6-3-1.7-4.1
		C102.8,88,101.3,87.4,99.5,87.4 M115.5,104.4c5.7,3.3,8.6,8.1,8.6,14.4c0,5.5-2.2,10-6.5,13.5c-4.3,3.5-9.7,5.2-16.1,5.2H72.1V73.8
		h27.4c6.3,0,11.5,1.7,15.8,5.1c4.2,3.4,6.4,7.8,6.4,13.2C121.6,97.1,119.6,101.2,115.5,104.4"/>
	<path class="st0" d="M146.4,87.4v16.4h12c2.2,0,4.1-0.8,5.7-2.4c1.6-1.6,2.4-3.5,2.4-5.8c0-2.3-0.8-4.2-2.4-5.8
		c-1.6-1.6-3.5-2.4-5.7-2.4H146.4z M167.2,137.5L154,116.5h-7.6v20.9h-16V73.8h28c6.7,0,12.3,2.1,17,6.4c4.7,4.2,7,9.4,7,15.5
		c0,3.9-1.2,7.5-3.6,10.8c-2.4,3.3-5.5,5.9-9.4,7.7l14.9,23.4H167.2z"/>
	<polygon class="st0" points="208.1,123.5 236.1,123.5 236.1,137.5 192,137.5 192,73.8 235.6,73.8 235.6,87.8 208.1,87.8 
		208.1,98.3 233.1,98.3 233.1,112.2 208.1,112.2 	"/>
	<polygon class="st0" points="315.3,73.8 315.3,137.5 299.3,137.5 299.3,100.4 281.2,127.5 279.4,127.5 261.2,100.4 261.2,137.5 
		245.2,137.5 245.2,73.8 261.2,73.8 280.3,102.1 299.3,73.8 	"/>
	<path class="st0" d="M343.3,118.9c3.4,3.4,7.7,5.1,12.8,5.1c5.1,0,9.4-1.7,12.8-5.1c3.4-3.4,5.2-7.8,5.2-13.2
		c0-5.4-1.7-9.8-5.2-13.2c-3.4-3.4-7.7-5.1-12.8-5.1c-5.1,0-9.4,1.7-12.8,5.1c-3.4,3.4-5.2,7.8-5.2,13.2
		C338.1,111,339.8,115.5,343.3,118.9 M380.3,129.9c-6.6,6.6-14.7,9.8-24.2,9.8c-9.5,0-17.6-3.3-24.2-9.8c-6.6-6.6-9.9-14.7-9.9-24.3
		c0-9.6,3.3-17.7,9.9-24.3c6.6-6.6,14.7-9.8,24.2-9.8c9.5,0,17.6,3.3,24.2,9.8c6.6,6.6,9.9,14.7,9.9,24.3
		C390.2,115.3,386.9,123.4,380.3,129.9"/>
	<path class="st0" d="M412.9,87.4v16.4h12c2.2,0,4.1-0.8,5.7-2.4c1.6-1.6,2.4-3.5,2.4-5.8c0-2.3-0.8-4.2-2.4-5.8
		c-1.6-1.6-3.5-2.4-5.7-2.4H412.9z M433.7,137.5l-13.2-20.9h-7.6v20.9h-16V73.8h28c6.7,0,12.3,2.1,17,6.4c4.7,4.2,7,9.4,7,15.5
		c0,3.9-1.2,7.5-3.6,10.8c-2.4,3.3-5.5,5.9-9.4,7.7l14.9,23.4H433.7z"/>
	<path class="st1" d="M52.3,41l16.8,14.1c3-5.4,4.8-11.5,4.8-18.1v0L52.3,41z"/>
	<path class="st1" d="M25.7,25.9L18.1,5.2c-5.6,3.3-10.2,8-13.4,13.6L25.7,25.9z"/>
	<path class="st1" d="M32.8,21.9L37,0.1l4,21.4L55.1,4.8C49.7,1.7,43.5,0,36.9,0c-6.9,0-13.3,1.9-18.8,5.2L32.8,21.9z"/>
	<path class="st1" d="M51.9,32.8l21.9,4.1c0-6.9-1.9-13.3-5.2-18.8L51.9,32.8z"/>
	<path class="st1" d="M48,25.7l20.7-7.6c-3.3-5.6-8-10.2-13.6-13.3L48,25.7z"/>
	<path class="st1" d="M21.5,32.9L4.8,18.8C1.7,24.2,0,30.3,0,36.9L21.5,32.9z"/>
	<path class="st1" d="M48.2,47.9l7.6,20.8c5.6-3.3,10.2-8,13.3-13.6L48.2,47.9z"/>
	<path class="st1" d="M41.1,51.9l-4.1,21.8l-4-21.4L18.8,69.1l7.1-20.9L5.2,55.8L21.9,41L0,36.9v0c0,20.4,16.5,36.9,36.9,36.9
		c6.9,0,13.3-1.9,18.8-5.2L41.1,51.9z"/>
	<polygon class="st0" points="26.2,198.9 26.1,181.2 17.3,195.9 15.7,195.9 7,181.3 7,198.9 3.6,198.9 3.6,174.6 6.5,174.6 
		16.6,191.7 26.6,174.6 29.5,174.6 29.5,198.9 	"/>
	<path class="st0" d="M51.1,190l-5.2-11.9L40.6,190H51.1z M52.3,192.8H39.4l-2.7,6.1h-3.6l11-24.3h3.4l11,24.3H55L52.3,192.8z"/>
	<polygon class="st0" points="70.1,188.1 65.7,192.6 65.7,198.9 62.2,198.9 62.2,174.6 65.7,174.6 65.7,188.2 78.9,174.6 
		82.9,174.6 72.5,185.5 83.5,198.9 79.5,198.9 	"/>
	<polygon class="st0" points="104.8,195.9 104.8,198.9 87.2,198.9 87.2,174.6 104.4,174.6 104.4,177.6 90.7,177.6 90.7,185.1 
		102.9,185.1 102.9,188 90.7,188 90.7,195.9 	"/>
	<polygon class="st0" points="119.8,174.6 123.3,174.6 123.3,195.9 136.5,195.9 136.5,198.9 119.8,198.9 	"/>
	<rect x="140.4" y="174.6" class="st0" width="3.5" height="24.3"/>
	<polygon class="st0" points="154.7,177.6 154.7,186.1 166.9,186.1 166.9,189.1 154.7,189.1 154.7,198.9 151.2,198.9 151.2,174.6 
		168.4,174.6 168.4,177.6 	"/>
	<polygon class="st0" points="190.9,195.9 190.9,198.9 173.3,198.9 173.3,174.6 190.4,174.6 190.4,177.6 176.7,177.6 176.7,185.1 
		188.9,185.1 188.9,188 176.7,188 176.7,195.9 	"/>
	<path class="st0" d="M221.8,195.1c1-0.6,1.5-1.7,1.5-3.1c0-2.7-2-4.1-5.9-4.1h-8v8.1h8C219.3,196.1,220.8,195.7,221.8,195.1
		 M209.4,177.4v7.8h7.1c1.8,0,3.2-0.3,4.1-1c1-0.7,1.4-1.6,1.4-2.9c0-1.3-0.5-2.2-1.4-2.9c-1-0.7-2.3-1-4.1-1H209.4z M225.6,188.4
		c0.8,1,1.2,2.3,1.2,3.9c0,2.1-0.8,3.7-2.4,4.9c-1.6,1.1-3.9,1.7-6.9,1.7h-11.6v-24.3h10.9c2.8,0,4.9,0.6,6.4,1.7
		c1.5,1.1,2.3,2.7,2.3,4.6c0,1.3-0.3,2.4-0.9,3.3c-0.6,0.9-1.4,1.6-2.4,2.1C223.7,186.7,224.8,187.4,225.6,188.4"/>
	<polygon class="st0" points="249.8,195.9 249.8,198.9 232.2,198.9 232.2,174.6 249.3,174.6 249.3,177.6 235.7,177.6 235.7,185.1 
		247.9,185.1 247.9,188 235.7,188 235.7,195.9 	"/>
	<polygon class="st0" points="260.3,177.6 251.9,177.6 251.9,174.6 272.1,174.6 272.1,177.6 263.7,177.6 263.7,198.9 260.3,198.9 	
		"/>
	<polygon class="st0" points="284,177.6 275.7,177.6 275.7,174.6 295.8,174.6 295.8,177.6 287.4,177.6 287.4,198.9 284,198.9 	"/>
	<polygon class="st0" points="317.2,195.9 317.2,198.9 299.6,198.9 299.6,174.6 316.7,174.6 316.7,177.6 303,177.6 303,185.1 
		315.2,185.1 315.2,188 303,188 303,195.9 	"/>
	<path class="st0" d="M337.2,187.1c1.2-1,1.7-2.3,1.7-4.1c0-1.8-0.6-3.1-1.7-4c-1.2-0.9-2.8-1.4-5-1.4h-5.9v10.9h5.9
		C334.4,188.5,336.1,188.1,337.2,187.1 M339.1,198.9l-5.2-7.5c-0.6,0-1.2,0.1-1.5,0.1h-6v7.4h-3.5v-24.3h9.5c3.1,0,5.6,0.8,7.4,2.3
		c1.8,1.5,2.7,3.6,2.7,6.2c0,1.9-0.5,3.5-1.4,4.8c-0.9,1.3-2.2,2.3-4,2.9l5.8,8.2H339.1z"/>
</g>
</svg>
