<?xml version="1.0" encoding="utf-8"?>
<!-- Generator: Adobe Illustrator 24.1.2, SVG Export Plug-In . SVG Version: 6.00 Build 0)  -->
<svg version="1.1" id="Слой_1" xmlns="http://www.w3.org/2000/svg" xmlns:xlink="http://www.w3.org/1999/xlink" x="0px" y="0px"
	 viewBox="0 0 113.4 39.7" style="enable-background:new 0 0 113.4 39.7;" xml:space="preserve">
<style type="text/css">
	.st0{fill:#FFFFFF;}
	.st1{fill:#02A8E0;}
</style>
<g id="Слой_2_1_">
	<g id="Layer_1">
		<path class="st0" d="M60.9,25.5c1.3,1.6,3.3,2.5,5.3,2.5h1.3V12.6h-4.3v10.3l-6.1-7.4L57,15.3c-1.4-1.7-3.5-2.7-5.8-2.7h-1.1V28
			h4.4V17.6l6.3,7.6L60.9,25.5z"/>
		<path class="st0" d="M83.3,28V15.9h7.8L87,13.4c-0.9-0.5-1.8-0.8-2.8-0.8H73.1v3.3h5.7V28H83.3z"/>
		<path class="st0" d="M103.1,12.6h-2.4c-1.4,0-2.7,0.8-3.3,2L90.6,28h4.6l5.5-11.6l3.5,7.6l-5-3l4,5.2c1.1,1.2,2.7,1.9,4.3,1.9h3.3
			L103.1,12.6z"/>
		<path class="st0" d="M39.9,28h4.6l-7.8-15.4h-1.9c-1.7,0-3.2,0.9-4,2.4L24.2,28h3.5c1.5,0,3-0.6,4-1.7l4.1-5.4l-5,3l3.6-7.6
			L39.9,28z"/>
		<path class="st1" d="M80.8,9.6L67.6,1.5L54.4,9.6c0,0,7.7-3.6,13.3-3.6S80.8,9.6,80.8,9.6z"/>
		<path class="st0" d="M20.4,23.3c0-2.6-2.4-3.7-6-4.5c-4.1-0.9-6.3-1-6.3-2.1s2-1.3,3.9-1.3c1.8,0,4.1,0.4,5.2,1.8l3.3-2.1
			c-1-1.1-2.7-2.9-8.9-2.9c-4.8,0-7.9,1.8-7.9,4.6c0,3.1,3.2,3.9,6.6,4.6c4.3,0.9,5.6,1,5.6,2.2c0,0.4-0.3,0.8-0.7,0.9
			c-0.9,0.4-1.9,0.5-2.9,0.5h-0.4c-3.6,0-5.6-1.2-6.8-2.6l-3.5,2.1c0.9,1.4,3.9,3.8,10.3,3.8C16.1,28.3,20.4,26.9,20.4,23.3z"/>
		<path class="st0" d="M6,36h1.1v1.5c-0.3,0.1-0.7,0.1-1,0.1c-0.5,0-1.1-0.1-1.5-0.5c-0.4-0.4-0.5-1-0.5-1.6c0-0.6,0.1-1.1,0.5-1.5
			c0.4-0.4,0.9-0.6,1.4-0.5c0.5,0,0.9,0.1,1.3,0.3l0.2-0.6c-0.5-0.2-1-0.3-1.5-0.3c-0.5,0-1,0.1-1.4,0.3c-0.4,0.2-0.7,0.5-0.9,0.9
			c-0.2,0.4-0.3,0.9-0.3,1.4c0,0.7,0.2,1.4,0.7,2c0.5,0.5,1.1,0.7,1.8,0.7c0.3,0,0.7,0,1-0.1c0.3,0,0.6-0.1,0.8-0.2v-2.5H6V36z"/>
		<path class="st0" d="M14.6,34.4c0-0.4-0.1-0.8-0.4-1.1c-0.4-0.3-0.9-0.4-1.4-0.4h-1.3v5.1H12V36h1.1l1.2,2.1H15l-1.4-2.3
			C14.2,35.6,14.6,35.1,14.6,34.4z M12.8,35.4H12v-1.9h0.8c0.3,0,0.7,0.1,0.9,0.2c0.2,0.2,0.3,0.5,0.3,0.7c0,0.3-0.1,0.6-0.3,0.8
			C13.5,35.4,13.2,35.5,12.8,35.4L12.8,35.4z"/>
		<path class="st0" d="M20,32.9c-0.7,0-1.3,0.2-1.7,0.7c-0.4,0.5-0.6,1.2-0.6,1.9c-0.1,0.7,0.2,1.4,0.6,2c0.4,0.5,1.1,0.7,1.7,0.7
			c0.6,0,1.3-0.2,1.7-0.7c0.8-1.1,0.8-2.7,0-3.8C21.2,33.2,20.6,32.9,20,32.9z M21.2,37.1c-0.3,0.4-0.8,0.6-1.3,0.5
			c-0.5,0-1-0.2-1.3-0.5c-0.3-0.5-0.5-1-0.4-1.6c0-0.6,0.1-1.1,0.4-1.5c0.3-0.3,0.8-0.5,1.3-0.5c0.5,0,1,0.2,1.3,0.5
			c0.3,0.4,0.4,1,0.4,1.5C21.7,36.1,21.5,36.6,21.2,37.1z"/>
		<path class="st0" d="M28.6,36.3c0,0.4-0.1,0.7-0.4,1c-0.3,0.2-0.6,0.4-1,0.3c-0.4,0-0.7-0.1-1-0.3c-0.3-0.3-0.4-0.6-0.4-1V33h-0.6
			v3.3c0,0.5,0.2,1,0.5,1.4c0.4,0.4,0.9,0.5,1.4,0.5c0.5,0,1-0.1,1.4-0.5c0.4-0.4,0.6-0.9,0.5-1.4V33h-0.6L28.6,36.3z"/>
		<path class="st0" d="M33.3,33H32v5.1h0.6v-2h0.6c0.5,0,1-0.1,1.5-0.4c0.4-0.3,0.6-0.7,0.6-1.2C35.2,33.5,34.6,33,33.3,33z
			 M34.3,35.3c-0.3,0.2-0.7,0.3-1.1,0.3h-0.5v-2.1h0.7c0.4,0,0.7,0.1,1,0.3c0.2,0.2,0.4,0.5,0.4,0.8C34.6,34.8,34.5,35.1,34.3,35.3
			L34.3,35.3z"/>
		<path class="st0" d="M44.9,32.9c-0.7,0-1.3,0.2-1.7,0.7c-0.4,0.5-0.7,1.2-0.6,1.9c-0.1,0.7,0.2,1.4,0.6,2c1,0.9,2.5,0.9,3.5,0
			c0.5-0.6,0.7-1.3,0.6-2c0-0.7-0.2-1.3-0.6-1.9C46.2,33.1,45.5,32.9,44.9,32.9z M46.1,37.1c-0.3,0.4-0.8,0.6-1.3,0.5
			c-0.5,0-1-0.2-1.3-0.5c-0.3-0.5-0.5-1-0.4-1.6c0-0.6,0.1-1.1,0.4-1.5c0.3-0.3,0.8-0.5,1.3-0.5c0.5,0,1,0.2,1.3,0.5
			c0.3,0.4,0.4,0.9,0.4,1.5C46.6,36.1,46.4,36.6,46.1,37.1z"/>
		<polygon class="st0" points="50,38.1 50.6,38.1 50.6,35.9 52.7,35.9 52.7,35.4 50.6,35.4 50.6,33.5 52.8,33.5 52.8,33 50,33 		"/>
		<path class="st0" d="M61.5,33.5c0.4,0,0.8,0.1,1.2,0.3l0.3-0.5C62.5,33.1,62,33,61.5,33c-0.5,0-0.9,0.1-1.3,0.3
			c-0.4,0.2-0.7,0.5-0.8,0.9c-0.2,0.4-0.3,0.9-0.3,1.4c0,0.7,0.2,1.4,0.6,1.9c0.4,0.5,1.1,0.7,1.7,0.7c0.4,0,0.9-0.1,1.3-0.2v-0.5
			c-0.4,0.1-0.8,0.2-1.2,0.2c-0.5,0-1-0.2-1.3-0.5c-0.3-0.4-0.5-1-0.5-1.5c0-0.6,0.1-1.1,0.5-1.5C60.5,33.7,61,33.5,61.5,33.5z"/>
		<path class="st0" d="M67.8,32.9c-0.7,0-1.3,0.2-1.7,0.7c-0.4,0.5-0.6,1.2-0.6,1.9c-0.1,0.7,0.2,1.4,0.6,2c0.4,0.5,1.1,0.7,1.7,0.7
			c0.6,0,1.3-0.2,1.7-0.7c0.8-1.1,0.8-2.7,0-3.8C69.1,33.2,68.5,32.9,67.8,32.9z M69.1,37.1c-0.7,0.7-1.8,0.7-2.5,0c0,0,0,0,0,0
			c-0.3-0.5-0.5-1-0.4-1.6c0-0.6,0.1-1.1,0.4-1.5c0.7-0.7,1.8-0.7,2.5,0c0,0,0,0,0,0c0.3,0.5,0.5,1,0.4,1.5
			C69.6,36.1,69.4,36.6,69.1,37.1z"/>
		<path class="st0" d="M75.5,37.2L75.5,37.2L73.9,33H73v5.1h0.6v-3.2c0-0.5,0-0.9,0-1.3l0,0l1.7,4.5h0.5l1.7-4.5l0,0
			c0,0.4,0,0.8,0,1.2v3.3h0.6V33h-0.9L75.5,37.2z"/>
		<path class="st0" d="M82.5,33h-1.3v5.1h0.6v-2h0.6c0.5,0,1.1-0.1,1.5-0.4c0.4-0.3,0.5-0.7,0.5-1.2C84.4,33.5,83.8,33,82.5,33z
			 M83.5,35.3c-0.3,0.2-0.7,0.3-1.1,0.3h-0.5v-2.1h0.7c0.4,0,0.7,0.1,1,0.3c0.2,0.2,0.4,0.5,0.3,0.8C83.8,34.8,83.7,35.1,83.5,35.3z
			"/>
		<path class="st0" d="M88.4,33l-2,5.1H87l0.6-1.6h2l0.6,1.6h0.6l-2-5.1L88.4,33z M87.8,36l0.6-1.6c0.1-0.3,0.2-0.5,0.2-0.7
			c0.1,0.2,0.1,0.5,0.2,0.7l0.6,1.6H87.8z"/>
		<path class="st0" d="M96.9,35.9c0,0.2,0,0.4,0,0.7s0,0.5,0,0.6l0,0L94.1,33h-0.7v5.1H94v-2.9c0-0.4,0-0.9,0-1.4l0,0l2.8,4.3h0.7
			V33h-0.6L96.9,35.9z"/>
		<rect x="100.3" y="33" class="st0" width="0.6" height="5.1"/>
		<polygon class="st0" points="103.6,38.1 106.4,38.1 106.4,37.6 104.1,37.6 104.1,35.7 106.3,35.7 106.3,35.2 104.1,35.2 
			104.1,33.5 106.4,33.5 106.4,33 103.6,33 		"/>
		<path class="st0" d="M111.5,35.9c-0.3-0.3-0.7-0.5-1.1-0.6c-0.2-0.1-0.5-0.2-0.7-0.3c-0.1-0.1-0.2-0.2-0.3-0.3
			c-0.1-0.1-0.1-0.3-0.1-0.4c0-0.2,0.1-0.4,0.3-0.6c0.2-0.1,0.5-0.2,0.7-0.2c0.4,0,0.8,0.1,1.2,0.3l0.2-0.5
			c-0.4-0.2-0.9-0.3-1.4-0.3c-0.4,0-0.8,0.1-1.2,0.3c-0.3,0.2-0.5,0.6-0.4,0.9c0,0.3,0.1,0.7,0.3,0.9c0.3,0.3,0.6,0.5,1,0.6
			c0.3,0.1,0.5,0.2,0.8,0.3c0.1,0.1,0.3,0.2,0.4,0.3c0.1,0.1,0.1,0.3,0.1,0.4c0,0.2-0.1,0.5-0.3,0.6c-0.3,0.2-0.6,0.3-0.9,0.2
			c-0.2,0-0.5,0-0.7-0.1c-0.2,0-0.5-0.1-0.7-0.2v0.6c0.4,0.2,0.9,0.3,1.4,0.2c0.5,0,0.9-0.1,1.3-0.4c0.3-0.2,0.5-0.6,0.5-1
			C111.8,36.5,111.7,36.1,111.5,35.9z"/>
	</g>
</g>
</svg>
